<?xml version="1.0" encoding="utf-8"?>
<!-- Generator: Adobe Illustrator 20.0.0, SVG Export Plug-In . SVG Version: 6.00 Build 0)  -->
<svg version="1.1" id="Layer_1" xmlns="http://www.w3.org/2000/svg" xmlns:xlink="http://www.w3.org/1999/xlink" x="0px" y="0px"
	 viewBox="0 0 100 100" style="enable-background:new 0 0 100 100;" xml:space="preserve">
<style type="text/css">
	.st0{fill:#FFFFFF;}
</style>
<g>
	<path class="st0" d="M50,21.7c-9.4,0-17,7.6-17,17c0,4.3,0.8,9.1,2.5,14.2c1.3,4,3.1,8.2,5.4,12.5c3.9,7.3,9,12.9,9,12.9
		s5.1-5.7,9-12.9c2.3-4.3,4.1-8.5,5.4-12.5C66.1,47.8,67,43,67,38.7C67,29.3,59.4,21.7,50,21.7z M50,47.2c-4.7,0-8.5-3.8-8.5-8.5
		s3.8-8.5,8.5-8.5s8.5,3.8,8.5,8.5S54.7,47.2,50,47.2z"/>
</g>
</svg>
