<?xml version="1.0" encoding="utf-8"?>
<!-- Generator: Adobe Illustrator 20.0.0, SVG Export Plug-In . SVG Version: 6.00 Build 0)  -->
<svg version="1.1" id="Layer_1" xmlns="http://www.w3.org/2000/svg" xmlns:xlink="http://www.w3.org/1999/xlink" x="0px" y="0px"
	 viewBox="0 0 100 100" style="enable-background:new 0 0 100 100;" xml:space="preserve">
<style type="text/css">
	.st0{fill:#FFFFFF;}
</style>
<g>
	<path class="st0" d="M50,47.5L73.8,36L74,36c-0.2,0-1.3,0-1.4,0H27.4c-0.1,0-1.2-0.1-1.4,0l0.2,0.1L50,47.5z"/>
	<path class="st0" d="M26,35.9L26,35.9C26,35.9,26,35.9,26,35.9L26,35.9z"/>
	<path class="st0" d="M74,35.9C74,35.9,74,35.9,74,35.9L74,35.9L74,35.9z"/>
	<path class="st0" d="M73.8,36l0.2-0.1c0,0,0,0,0,0L73.8,36z"/>
	<polygon class="st0" points="50,52 26.2,36 26,35.9 26,64 74,64 74,35.9 73.8,36 	"/>
	<path class="st0" d="M26,35.9C26,35.9,26,35.9,26,35.9l0.2,0.1L26,35.9z"/>
</g>
</svg>
