<?xml version="1.0" encoding="utf-8"?>
<!-- Generator: Adobe Illustrator 20.0.0, SVG Export Plug-In . SVG Version: 6.00 Build 0)  -->
<svg version="1.1" id="Layer_1" xmlns="http://www.w3.org/2000/svg" xmlns:xlink="http://www.w3.org/1999/xlink" x="0px" y="0px"
	 viewBox="0 0 100 100" style="enable-background:new 0 0 100 100;" xml:space="preserve">
<style type="text/css">
	.st0{fill:#FFFFFF;}
</style>
<path class="st0" d="M43,62.1c3.5,3.5,7.5,6.5,11.5,8.5c4.4,2.2,8.5,3.2,12.6,3.4l0,0c2.4-0.2,5.1-2.4,6-3.5c1.4-1.5,3-3.8,3-5.5
	c0-0.8-0.6-1.8-1.7-3.1c-0.9-1-2.1-2-3.5-3.1c-0.8-0.7-5.1-3.9-7.2-3.9c-1.7,0-2.9,1.9-4.1,3.9c-0.5,0.8-1,1.6-1.4,2.2
	c-0.5,0.6-0.8,0.7-0.8,0.7c-5.3-2.1-11.9-8.7-14-14c0-0.1,0.1-0.3,0.7-0.8c0.6-0.5,1.4-1,2.2-1.4c2-1.2,3.9-2.4,3.9-4.1
	c0-2-3.2-6.3-3.9-7.2c-1.1-1.4-2.2-2.6-3.1-3.5c-1.3-1.2-2.3-1.7-3.1-1.7c-1.7,0-4,1.6-5.5,3c-1,1-3.4,3.4-3.4,6
	c0,4,1.1,8.2,3.4,12.6C36.5,54.6,39.5,58.6,43,62.1z"/>
</svg>
