<svg xmlns="http://www.w3.org/2000/svg" viewBox="0 0 100 100"><defs><style>.a{fill:#333;}</style></defs><title>social</title><path class="a" d="M27.78,57.32V42.68a3.13,3.13,0,0,0,.06-.34c.07-1.1.1-2.2.22-3.29a12.61,12.61,0,0,1,2-5.84c2.35-3.45,5.76-4.93,9.79-5.25.93-.07,1.87-.12,2.8-.18H57.32a2.21,2.21,0,0,0,.3.06c1.13.07,2.26.09,3.38.22a12.62,12.62,0,0,1,5.79,2c3.45,2.35,4.93,5.76,5.25,9.79.07.93.12,1.87.18,2.8V57.32a3.13,3.13,0,0,0-.06.34c-.07,1.1-.1,2.2-.22,3.29a12.62,12.62,0,0,1-2,5.84c-2.35,3.45-5.76,4.93-9.79,5.25-.93.07-1.87.12-2.8.18H42.68a2.22,2.22,0,0,0-.3-.06c-1.11-.07-2.23-.1-3.34-.22a12.6,12.6,0,0,1-5.84-2c-3.45-2.34-4.93-5.76-5.25-9.79C27.89,59.19,27.84,58.25,27.78,57.32ZM50,68.13v0c1.88,0,3.76,0,5.64,0a47.24,47.24,0,0,0,5.61-.37,7.33,7.33,0,0,0,6.37-5.55,21.21,21.21,0,0,0,.57-5.72q.08-6.06,0-12.12a40.84,40.84,0,0,0-.37-5.61,7.33,7.33,0,0,0-5.55-6.37,21.22,21.22,0,0,0-5.72-.57q-6.06-.08-12.12,0a40.84,40.84,0,0,0-5.61.37,7.33,7.33,0,0,0-6.37,5.55,21.22,21.22,0,0,0-.57,5.72q-.08,6.06,0,12.12a40.83,40.83,0,0,0,.37,5.61,7.33,7.33,0,0,0,5.55,6.37,19.13,19.13,0,0,0,5.06.55C45.2,68.17,47.58,68.13,50,68.13Z"/><path class="a" d="M61.44,50A11.44,11.44,0,1,1,50,38.56,11.47,11.47,0,0,1,61.44,50ZM42.62,50A7.38,7.38,0,1,0,50,42.62,7.38,7.38,0,0,0,42.62,50Z"/><path class="a" d="M61.85,40.83a2.68,2.68,0,1,1,2.69-2.67A2.67,2.67,0,0,1,61.85,40.83Z"/></svg>