<svg xmlns="http://www.w3.org/2000/svg" viewBox="0 0 100 100"><defs><style>.a{fill:#333;}</style></defs><title>social</title><path class="a" d="M74.76,39.9s-.49-3.48-2-5a7.23,7.23,0,0,0-5.06-2.14C60.62,32.23,50,32.23,50,32.23h0s-10.61,0-17.68.51a7.23,7.23,0,0,0-5.06,2.14c-1.51,1.53-2,5-2,5a76.41,76.41,0,0,0-.51,8.18v3.83a76.41,76.41,0,0,0,.51,8.18s.49,3.48,2,5c1.92,2,4.45,1.95,5.57,2.16,4,.39,17.18.51,17.18.51s10.62,0,17.69-.53a7.23,7.23,0,0,0,5.06-2.14c1.51-1.53,2-5,2-5a76.53,76.53,0,0,0,.5-8.18V48.08A76.53,76.53,0,0,0,74.76,39.9Zm-30,16.66V42.36l13.65,7.12Z"/></svg>