<svg xmlns="http://www.w3.org/2000/svg" viewBox="0 0 100 100"><defs><style>.a{fill:#4080c0;}</style></defs><title>social</title><path class="a" d="M-115-5V547H105V-5Zm36.26,59.25a7.39,7.39,0,0,0,1.82.15,17.16,17.16,0,0,0,2.77-.3A9.76,9.76,0,0,1-82,44.39v-.15a7.64,7.64,0,0,0,4.36,1.21,10.35,10.35,0,0,1-4.49-8.34,9.51,9.51,0,0,1,1.32-5A28.55,28.55,0,0,0-60.2,42.57a11.73,11.73,0,0,1-.32-2.28,10,10,0,0,1,10-10,9.76,9.76,0,0,1,7.13,3.19A19.11,19.11,0,0,0-37,31a9.8,9.8,0,0,1-4.4,5.46A16.52,16.52,0,0,0-35.9,35,22.89,22.89,0,0,1-41,40.14v1.21c0,13.2-9.77,28.37-28.12,28.37a29.68,29.68,0,0,1-15.35-4.4,13.72,13.72,0,0,0,2.49.15,19.68,19.68,0,0,0,12.47-4.25A10.09,10.09,0,0,1-78.74,54.25ZM-49,476.84h-4.65c-3.69,0-4.35,1.76-4.35,4.33V487h8.37l-1.15,9H-58v23H-68V496h-7v-9h7v-6.71c0-7.61,5-11.76,11.79-11.76,3.25,0,6.21.24,7.21.35Zm9-78.49A1.65,1.65,0,0,1-41.65,400H-78.35A1.65,1.65,0,0,1-80,398.35V361.65A1.65,1.65,0,0,1-78.35,360h36.71A1.65,1.65,0,0,1-40,361.65Zm1.89-117.4a12.58,12.58,0,0,1-2,5.84c-2.35,3.45-5.75,4.82-9.78,5.14-.93.07-1.85.07-2.79.07H-67.32c-.1,0-.2.06-.3,0-1.11-.07-2.23,0-3.34-.16a12.57,12.57,0,0,1-5.84-2c-3.45-2.34-4.82-5.75-5.14-9.78-.07-.93-.07-1.85-.07-2.79V262.68c0-.11-.06-.23,0-.34.07-1.1,0-2.2.16-3.29a12.58,12.58,0,0,1,2-5.84c2.35-3.45,5.75-4.82,9.78-5.14.93-.07,1.85-.07,2.79-.07h14.63c.1,0,.2-.06.3,0,1.13.07,2.26,0,3.38.17a12.59,12.59,0,0,1,5.79,2c3.45,2.35,4.82,5.75,5.14,9.78.07.93.08,1.85.08,2.79v14.63c0,.11.06.23,0,.34C-38,278.76-38,279.86-38.11,280.95Zm3.11-119c0,4.09-.37,8.18-.37,8.18s-.43,3.48-1.94,5a7.16,7.16,0,0,1-5,2.14c-7.07.51-17.67.53-17.67.53s-13.13-.12-17.17-.51c-1.12-.21-3.65-.15-5.57-2.16-1.51-1.53-1.87-5-1.87-5S-85,166-85,161.91v-3.83c0-4.09.37-8.18.37-8.18s.43-3.48,1.94-5a7.43,7.43,0,0,1,5-2.26C-70.58,142.12-60,142-60,142h0s10.61.12,17.68.63a7.36,7.36,0,0,1,5.06,2.2c1.51,1.53,1.88,5,1.88,5s.37,4.12.37,8.21ZM11.25,50A24.64,24.64,0,0,1,35.91,25.35a23.64,23.64,0,0,1,16.52,6.45l-6.69,6.45a13.88,13.88,0,0,0-9.83-3.8,15.59,15.59,0,0,0,0,31.17c9.76,0,13.42-6.61,14-10.61H36V46H59.19a35.49,35.49,0,0,1,.39,4.33c0,14.09-9.44,24.22-23.67,24.22A24.54,24.54,0,0,1,11.25,50ZM56.47,150.56a8.27,8.27,0,0,0-3.27.72q3.25-10.65,12.43-10.35,6.8.2,6.41,8.82-.3,6.44-9,17.64-9,11.69-15.23,11.69-3.86,0-6.53-7.12L37.73,158.9q-2-7.12-4.25-7.12-.5,0-3.46,2.08l-2.08-2.67q3.27-2.87,6.44-5.74,4.36-3.76,6.54-4,5.15-.5,6.34,7,1.29,8.13,1.78,10.11,1.49,6.75,3.27,6.74,1.38,0,4.16-4.38t3-6.66Q59.84,150.56,56.47,150.56ZM68,384.7a26.32,26.32,0,0,1-5,.55c-3.39,7.15-9.56,13.26-11.6,14.42a3.62,3.62,0,0,1-4,0C45,398.16,35.45,390,32.27,366h6.88c1.73,15,5.95,22.13,10.61,27.77a38.69,38.69,0,0,0,7-9.9c-4.61-2.34-7.4-7.49-7.4-13.46s3.48-10.62,9.43-10.62c5.79,0,8.95,3.6,8.95,9.8a17.84,17.84,0,0,1-1.41,7c-4.3.84-5.87-1.9-5.87-1.9a16.6,16.6,0,0,0,.76-4.49c0-2.88-1.05-4.29-2.63-4.29s-2.83,1.58-2.83,4.62c0,6.2,4.07,9.76,9.17,9.76a14.18,14.18,0,0,0,3.09-.35Zm-.25-99.52q-.51.29-.81,1.62t-.81,1.62a9,9,0,0,0-2.87-.44,14.31,14.31,0,0,0-7.06,2.21,14.22,14.22,0,0,1-7,2.21,7.89,7.89,0,0,1-2.65-.44q-10.15-3.6-12.28-3.6l-.22.07a20.4,20.4,0,0,0-1.69-3.23c-4.17-.59-6.39-1.54-6.39-2.87v-.15A43.92,43.92,0,0,1,30.19,280c4.41-2.21,6.69-4.61,6.69-7.2a6.57,6.57,0,0,0,0-1c-.2-.83-1.3-1.59-3.21-2.28C31.91,269,31,268.2,31,267.32v-.07c0-1.08.9-1.62,2.28-1.62a11.88,11.88,0,0,1,3.22.59,11.36,11.36,0,0,0,.5-3.9v-1.18c0-.73,0-1.4,0-2a10.66,10.66,0,0,1,.39-3.23q2.57-8.31,12-8.31a25.49,25.49,0,0,1,2.65.15c7.55.78,11.32,5.06,11.32,12.76a32.57,32.57,0,0,1-.51,5.48h.59c3.72,0,5.58.36,5.58,1.24v.15c0,1-.75,1.76-2.31,2.35-2,.73-3.19,1.35-3.58,1.84q1.47,6.62,10.6,10.07C73.7,282.93,71.72,284.1,67.75,285.18ZM89,54H81v6H75V54H67V46h8V40h6v6h8Z"/></svg>