<svg xmlns="http://www.w3.org/2000/svg" viewBox="0 0 100 100"><defs><style>.a{fill:#4080c0;}</style></defs><title>social</title><path class="a" d="M67.73,49.88a13.27,13.27,0,0,1-3,.35c-5.1,0-9-3.56-9-9.76,0-3,1.17-4.62,2.83-4.62s2.63,1.42,2.63,4.29a16.6,16.6,0,0,1-.76,4.49s1.57,2.74,5.87,1.9a17.85,17.85,0,0,0,1.41-7c0-6.2-3.16-9.8-8.95-9.8-6,0-9.43,4.58-9.43,10.61s2.79,11.11,7.4,13.45a38.46,38.46,0,0,1-7,9.86c-4.66-5.64-8.88-13.16-10.61-27.84H32.27c3.18,24.45,12.66,32.24,15.16,33.73a3.57,3.57,0,0,0,3.93.08c2-1.16,8.14-7.26,11.53-14.42a22.75,22.75,0,0,0,4.83-.55Z"/></svg>