<svg xmlns="http://www.w3.org/2000/svg" viewBox="0 0 100 100"><defs><style>.a{fill:#4080c0;}</style></defs><title>social</title><path class="a" d="M73.71,61.65Q64.59,58.2,63.12,51.58q.59-.73,3.6-1.84,2.35-.88,2.35-2.35v-.15q-.07-1.32-5.66-1.32h-.59a31.77,31.77,0,0,0,.51-5.44q0-11.54-11.32-12.72a25.38,25.38,0,0,0-2.65-.15q-9.41,0-12,8.31A10.79,10.79,0,0,0,37,39.16q0,.88.07,2v1.18a11.31,11.31,0,0,1-.51,3.9,12,12,0,0,0-3.23-.59q-2.06,0-2.21,1.62v.07q0,1.32,2.57,2.28,2.87,1,3.16,2.28a6.9,6.9,0,0,1,.07,1q0,3.9-6.62,7.2a30.77,30.77,0,0,0-4,2.13v.15q0,2,6.25,2.87a14.41,14.41,0,0,1,1.54,3.23l.22-.07q2.13,0,12.28,3.6a7.89,7.89,0,0,0,2.65.44,14.22,14.22,0,0,0,7-2.21A14.31,14.31,0,0,1,63.27,68a9,9,0,0,1,2.87.44q.51-.29.81-1.62t.81-1.62Q73.71,63.56,73.71,61.65Z"/></svg>