<svg xmlns="http://www.w3.org/2000/svg" viewBox="0 0 100 100"><defs><style>.a{fill:#333;}</style></defs><title>social</title><path class="a" d="M74.35,35a18,18,0,0,1-5.76,1.52A9.8,9.8,0,0,0,73,31a19.12,19.12,0,0,1-6.37,2.43,9.77,9.77,0,0,0-7.13-3.19,10,10,0,0,0-10,10,11.71,11.71,0,0,0,.3,2.28A28.6,28.6,0,0,1,29.14,32.1a9.55,9.55,0,0,0-1.37,5,10.26,10.26,0,0,0,4.4,8.34,9.27,9.27,0,0,1-4.55-1.21v.15a9.93,9.93,0,0,0,8,9.71,15,15,0,0,1-2.58.3,7.39,7.39,0,0,1-1.82-.15,10.13,10.13,0,0,0,9.25,7,19.6,19.6,0,0,1-12.44,4.25,13,13,0,0,1-2.43-.15,30.12,30.12,0,0,0,15.47,4.4c18.36,0,28.37-15.17,28.37-28.37V40.14A26.12,26.12,0,0,0,74.35,35Z"/></svg>