<svg xmlns="http://www.w3.org/2000/svg" viewBox="0 0 100 100"><defs><style>.a{fill:#4080c0;}</style></defs><title>social</title><path class="a" d="M68.1,30.25H31.9a1.65,1.65,0,0,0-1.65,1.65V68.1a1.65,1.65,0,0,0,1.65,1.65H68.1a1.65,1.65,0,0,0,1.65-1.65V31.9A1.65,1.65,0,0,0,68.1,30.25ZM42,63.91H36.1V45.06H42ZM39,42.48a3.4,3.4,0,1,1,3.4-3.4A3.4,3.4,0,0,1,39,42.48ZM63.91,63.91H58.05V54.74c0-2.19,0-5-3-5s-3.51,2.38-3.51,4.84v9.32H45.64V45.06h5.62v2.58h.08a6.15,6.15,0,0,1,5.54-3c5.93,0,7,3.9,7,9Z"/></svg>