<svg xmlns="http://www.w3.org/2000/svg" viewBox="0 0 100 100"><defs><style>.a{fill:#333;}</style></defs><title>social</title><path class="a" d="M50,42.62A7.38,7.38,0,1,0,57.38,50,7.38,7.38,0,0,0,50,42.62Z"/><path class="a" d="M67.78,38.79a7.33,7.33,0,0,0-5.55-6.37,21.22,21.22,0,0,0-5.72-.57q-6.06-.08-12.12,0a40.84,40.84,0,0,0-5.61.37,7.33,7.33,0,0,0-6.37,5.55,21.22,21.22,0,0,0-.57,5.72q-.08,6.06,0,12.12a40.84,40.84,0,0,0,.37,5.61,7.33,7.33,0,0,0,5.55,6.37,19.3,19.3,0,0,0,5.08.55c2.38,0,5.16,0,7.16,0v0c2,0,3.74,0,5.62,0a47.06,47.06,0,0,0,5.6-.37,7.32,7.32,0,0,0,6.36-5.55,21.21,21.21,0,0,0,.57-5.72q.08-6.06,0-12.12A40.85,40.85,0,0,0,67.78,38.79ZM50,61.44A11.44,11.44,0,1,1,61.44,50,11.47,11.47,0,0,1,50,61.44ZM61.85,40.83a2.68,2.68,0,1,1,2.69-2.67A2.67,2.67,0,0,1,61.85,40.83Z"/><path class="a" d="M-5-225V327H215V-225Zm36.26,59.25a7.39,7.39,0,0,0,1.82.15,17.16,17.16,0,0,0,2.77-.3A9.76,9.76,0,0,1,28-175.61v-.15a7.64,7.64,0,0,0,4.36,1.21,10.35,10.35,0,0,1-4.49-8.34,9.51,9.51,0,0,1,1.32-5A28.55,28.55,0,0,0,49.8-177.43a11.73,11.73,0,0,1-.32-2.28,10,10,0,0,1,10-10,9.76,9.76,0,0,1,7.13,3.19A19.11,19.11,0,0,0,73-189a9.8,9.8,0,0,1-4.4,5.46A16.52,16.52,0,0,0,74.1-185a22.89,22.89,0,0,1-5.1,5.16v1.21c0,13.2-9.77,28.37-28.12,28.37a29.68,29.68,0,0,1-15.35-4.4,13.72,13.72,0,0,0,2.49.15,19.68,19.68,0,0,0,12.47-4.25A10.09,10.09,0,0,1,31.26-165.75ZM61,256.84H56.35c-3.69,0-4.35,1.76-4.35,4.33V267h8.37l-1.15,9H52v23H42V276H35v-9h7v-6.71c0-7.61,5-11.76,11.79-11.76,3.25,0,6.21.24,7.21.35Zm9-78.49A1.65,1.65,0,0,1,68.35,180H31.65A1.65,1.65,0,0,1,30,178.35V141.65A1.65,1.65,0,0,1,31.65,140H68.35A1.65,1.65,0,0,1,70,141.65Zm1.89-117.4a12.58,12.58,0,0,1-2,5.84c-2.35,3.45-5.75,4.82-9.78,5.14-.93.07-1.85.07-2.79.07H42.68c-.1,0-.2.06-.3,0-1.11-.07-2.23,0-3.34-.16a12.57,12.57,0,0,1-5.84-2c-3.45-2.34-4.82-5.75-5.14-9.78C28,59.17,28,58.25,28,57.32V42.68c0-.11-.06-.23,0-.34.07-1.1,0-2.2.16-3.29a12.58,12.58,0,0,1,2-5.84c2.35-3.45,5.75-4.82,9.78-5.14.93-.07,1.85-.07,2.79-.07H57.32c.1,0,.2-.06.3,0,1.13.07,2.26,0,3.38.17a12.59,12.59,0,0,1,5.79,2c3.45,2.35,4.82,5.75,5.14,9.78.07.93.08,1.85.08,2.79V57.32c0,.11.06.23,0,.34C72,58.76,72,59.86,71.89,60.95ZM75-58.09c0,4.09-.37,8.18-.37,8.18s-.43,3.48-1.94,5a7.16,7.16,0,0,1-5,2.14c-7.07.51-17.67.53-17.67.53s-13.13-.12-17.17-.51c-1.12-.21-3.65-.15-5.57-2.16-1.51-1.53-1.87-5-1.87-5S25-54,25-58.09v-3.83c0-4.09.37-8.18.37-8.18s.43-3.48,1.94-5a7.43,7.43,0,0,1,5-2.26C39.42-77.88,50-78,50-78h0s10.61.12,17.68.63a7.36,7.36,0,0,1,5.06,2.2c1.51,1.53,1.88,5,1.88,5S75-66,75-61.92ZM121.25-170a24.64,24.64,0,0,1,24.66-24.66,23.64,23.64,0,0,1,16.52,6.45l-6.69,6.45a13.88,13.88,0,0,0-9.83-3.8A15.45,15.45,0,0,0,130.62-170a15.48,15.48,0,0,0,15.29,15.6c9.76,0,13.42-6.61,14-10.61H146v-9h23.19a35.49,35.49,0,0,1,.39,4.33c0,14.09-9.44,24.22-23.67,24.22A24.54,24.54,0,0,1,121.25-170ZM166.47-69.44a8.27,8.27,0,0,0-3.27.72q3.25-10.65,12.43-10.35,6.8.2,6.41,8.82-.3,6.44-9,17.64-9,11.69-15.23,11.69-3.86,0-6.53-7.12L147.73-61.1q-2-7.12-4.25-7.12-.5,0-3.46,2.08l-2.08-2.67q3.27-2.87,6.44-5.74,4.36-3.76,6.54-4,5.15-.5,6.34,7,1.29,8.13,1.78,10.11,1.49,6.75,3.27,6.74,1.38,0,4.16-4.38t3-6.66Q169.84-69.44,166.47-69.44ZM178,164.7a26.32,26.32,0,0,1-5,.55c-3.39,7.15-9.56,13.26-11.6,14.42a3.62,3.62,0,0,1-4,0c-2.51-1.49-12-9.66-15.2-33.66h6.88c1.73,15,5.95,22.13,10.61,27.77a38.69,38.69,0,0,0,7-9.9c-4.61-2.34-7.4-7.49-7.4-13.46s3.48-10.62,9.43-10.62c5.79,0,8.95,3.6,8.95,9.8a17.84,17.84,0,0,1-1.41,7c-4.3.84-5.87-1.9-5.87-1.9a16.6,16.6,0,0,0,.76-4.49c0-2.88-1.05-4.29-2.63-4.29s-2.83,1.58-2.83,4.62c0,6.2,4.07,9.76,9.17,9.76a14.18,14.18,0,0,0,3.09-.35Zm-.25-99.52q-.51.29-.81,1.62t-.81,1.62a9,9,0,0,0-2.87-.44,14.31,14.31,0,0,0-7.06,2.21,14.22,14.22,0,0,1-7,2.21,7.89,7.89,0,0,1-2.65-.44q-10.15-3.6-12.28-3.6l-.22.07a20.4,20.4,0,0,0-1.69-3.23c-4.17-.59-6.39-1.54-6.39-2.87v-.15A43.92,43.92,0,0,1,140.19,60c4.41-2.21,6.69-4.61,6.69-7.2a6.57,6.57,0,0,0,0-1c-.2-.83-1.3-1.59-3.21-2.28C141.91,49,141,48.2,141,47.32v-.07c0-1.08.9-1.62,2.28-1.62a11.88,11.88,0,0,1,3.22.59,11.36,11.36,0,0,0,.5-3.9V41.14c0-.73,0-1.4,0-2a10.66,10.66,0,0,1,.39-3.23q2.57-8.31,12-8.31a25.49,25.49,0,0,1,2.65.15c7.55.78,11.32,5.06,11.32,12.76a32.57,32.57,0,0,1-.51,5.48h.59c3.72,0,5.58.36,5.58,1.24v.15c0,1-.75,1.76-2.31,2.35-2,.73-3.19,1.35-3.58,1.84q1.47,6.62,10.6,10.07C183.7,62.93,181.72,64.1,177.75,65.18ZM199-166h-8v6h-6v-6h-8v-8h8v-6h6v6h8Z"/></svg>